<?xml version="1.0" encoding="UTF-8"?>
<svg id="Layer_1" data-name="Layer 1" xmlns="http://www.w3.org/2000/svg" viewBox="0 0 92.2 56.67">
  <defs>
    <style>
      .cls-1 {
        fill: #fcd66f;
      }

      .cls-2 {
        letter-spacing: .35em;
      }

      .cls-3 {
        letter-spacing: .35em;
      }

      .cls-4 {
        fill: #fcc12d;
      }

      .cls-5 {
        font-family: CoconPro-Excon, CoconPro;
        font-size: 25px;
      }

      .cls-6 {
        letter-spacing: .35em;
      }

      .cls-7 {
        fill: #f7f7f7;
      }
    </style>
  </defs>
  <g>
    <polygon class="cls-7" points="71.98 21.72 71.11 19.67 83.13 2.49 84.71 3.52 71.98 21.72"/>
    <polygon class="cls-4" points="83.13 2.49 82.54 6.65 80.82 9.14 81.42 4.98 83.13 2.49"/>
    <polygon class="cls-4" points="80.63 6.19 79.93 10.32 78.22 12.81 78.81 8.64 80.63 6.19"/>
    <polygon class="cls-4" points="78.03 9.85 77.43 14.02 75.62 16.47 76.31 12.34 78.03 9.85"/>
    <polygon class="cls-4" points="75.42 13.52 74.83 17.68 73.12 20.17 73.71 16.01 75.42 13.52"/>
    <polyline class="cls-4" points="71.11 19.67 72.82 17.18 71.81 22.18"/>
  </g>
  <g>
    <path d="m9.03,28.49h-2.23c-4.2,0-6.36-2.12-6.36-5.3V4.02c1.39-.37,3.95-.73,5.55-.73h3.11c5.99,0,11.07,4.86,11.07,12.35s-4.64,12.86-11.14,12.86Zm-.73-22.21h-1.42c-.8,0-2.16.15-3.07.33v15.67c0,2.26,1.21,3.21,3.51,3.21h1.35c5.15,0,8.15-3.8,8.15-9.35,0-6.69-3.25-9.86-8.51-9.86Z"/>
    <path d="m33.82,12.89c-.62-.55-1.68-.99-3-.99-2.59,0-3.58,1.28-3.58,5.44v10.96h-1.43c-1.21,0-1.9-.95-1.9-2.23v-8.99c0-5.41,2.63-8.29,6.43-8.29,2.67,0,3.65,1.17,3.65,2.48v1.61h-.18Z"/>
    <path d="m39.45,6.06c-1.24,0-2.26-1.02-2.26-2.26s1.02-2.3,2.26-2.3,2.23,1.06,2.23,2.3-.99,2.26-2.23,2.26Zm4.09,22.43c-3.84,0-5.84-1.9-5.84-5.81v-13.92h1.02c1.13,0,2.3.88,2.3,2.59v10.85c0,2.45,1.21,3.21,3.03,3.21h1.43v1.1c0,1.24-.77,1.97-1.94,1.97Z"/>
    <path d="m63.52,28.31c-1.35,0-2.08-.69-2.08-2.16v-8.99c0-4.05-1.5-5.63-4.97-5.63-2.92,0-4.6,1.64-4.6,5.63v11.14h-1.24c-1.21,0-2.05-.73-2.05-2.26v-8.95c0-5.48,3.29-8.69,8.29-8.69s7.85,2.81,7.85,8.66v11.25h-1.21Z"/>
    <path d="m73.54,16.31c1.68,2.26,5.02,6.01,7,8.05,1.68,1.75,2.41,2.19,3.47,2.45-.26.99-.48,1.61-2.23,1.61-1.1,0-1.86-.36-2.56-1.1-2.56-2.59-4.6-4.48-6.86-7.32l-.3,8.31h-1.06c-1.46,0-2.16-.84-2.16-2.63V2.01h1.02c1.42,0,2.19.73,2.19,2.19l.2,13.8"/>
  </g>
  <g>
    <circle class="cls-1" cx="39.41" cy="3.63" r="3.63"/>
    <path class="cls-4" d="m39.72,3.94l1.31,2.28c.04.08.15.12.23.04.77-.54,1.27-1.39,1.35-2.35,0-.08-.08-.15-.15-.15h-2.62c-.12,0-.19.12-.12.19Zm1.12-3.05c.04-.08,0-.19-.08-.19-.42-.19-.89-.31-1.35-.31-.5,0-.96.12-1.35.31-.08.04-.12.15-.08.19l1.31,2.28c.04.12.19.12.27,0l1.27-2.28Zm-2.89,5.44c-.04.08,0,.19.08.19.42.19.89.31,1.35.31.5,0,.96-.12,1.35-.31.08-.04.12-.15.08-.19l-1.27-2.28c-.04-.12-.19-.12-.27,0l-1.31,2.28Zm1.89-2.82h2.62c.08,0,.15-.08.15-.15-.08-.96-.62-1.85-1.35-2.35-.08-.04-.15-.04-.23.04l-1.31,2.24c-.08.12,0,.23.12.23Zm-.89.23h-2.62c-.08,0-.15.08-.15.15.08.96.62,1.85,1.35,2.35.08.04.15.04.23-.04l1.31-2.28c.08-.08,0-.19-.12-.19Zm.12-.46l-1.31-2.28c-.04-.08-.15-.12-.23-.04-.77.54-1.27,1.39-1.35,2.35,0,.08.08.15.15.15h2.62c.12.04.19-.08.12-.19Z"/>
  </g>
  <text class="cls-5" transform="translate(0 49.5)"><tspan class="cls-3" x="0" y="0">ma</tspan><tspan class="cls-6" x="41.37" y="0">k</tspan><tspan class="cls-2" x="59.27" y="0">er</tspan></text>
</svg>